<svg width="50" height="50" viewBox="0 0 50 50" fill="none" xmlns="http://www.w3.org/2000/svg">
<g filter="url(#filter0_b_101_37)">
<rect width="50" height="50" rx="25" fill="#E6F1FD" fill-opacity="0.1"/>
<path d="M24.997 21.2947C22.9568 21.2947 21.2918 22.9598 21.2918 25C21.2918 27.0403 22.9568 28.7053 24.997 28.7053C27.0373 28.7053 28.7023 27.0403 28.7023 25C28.7023 22.9598 27.0373 21.2947 24.997 21.2947ZM36.1099 25C36.1099 23.4657 36.1238 21.9452 36.0376 20.4136C35.9515 18.6346 35.5456 17.0558 34.2448 15.7549C32.9411 14.4512 31.3651 14.0482 29.5862 13.962C28.0518 13.8758 26.5314 13.8897 24.9998 13.8897C23.4655 13.8897 21.945 13.8758 20.4135 13.962C18.6345 14.0482 17.0557 14.454 15.7549 15.7549C14.4512 17.0586 14.0482 18.6346 13.962 20.4136C13.8758 21.948 13.8897 23.4684 13.8897 25C13.8897 26.5316 13.8758 28.0549 13.962 29.5865C14.0482 31.3654 14.454 32.9443 15.7549 34.2452C17.0585 35.5488 18.6345 35.9519 20.4135 36.038C21.9478 36.1242 23.4683 36.1103 24.9998 36.1103C26.5342 36.1103 28.0546 36.1242 29.5862 36.038C31.3651 35.9519 32.9439 35.546 34.2448 34.2452C35.5484 32.9415 35.9515 31.3654 36.0376 29.5865C36.1266 28.0549 36.1099 26.5344 36.1099 25ZM24.997 30.7011C21.8422 30.7011 19.2961 28.1549 19.2961 25C19.2961 21.8451 21.8422 19.299 24.997 19.299C28.1519 19.299 30.698 21.8451 30.698 25C30.698 28.1549 28.1519 30.7011 24.997 30.7011ZM30.9315 20.3969C30.1949 20.3969 29.6001 19.8021 29.6001 19.0655C29.6001 18.3289 30.1949 17.734 30.9315 17.734C31.6681 17.734 32.2629 18.3289 32.2629 19.0655C32.2631 19.2404 32.2289 19.4136 32.162 19.5752C32.0952 19.7369 31.9971 19.8838 31.8734 20.0074C31.7498 20.1311 31.6029 20.2292 31.4413 20.296C31.2796 20.3628 31.1064 20.3971 30.9315 20.3969Z" fill="white"/>
</g>
<defs>
<filter id="filter0_b_101_37" x="-71.5595" y="-71.5595" width="193.119" height="193.119" filterUnits="userSpaceOnUse" color-interpolation-filters="sRGB">
<feFlood flood-opacity="0" result="BackgroundImageFix"/>
<feGaussianBlur in="BackgroundImageFix" stdDeviation="35.7797"/>
<feComposite in2="SourceAlpha" operator="in" result="effect1_backgroundBlur_101_37"/>
<feBlend mode="normal" in="SourceGraphic" in2="effect1_backgroundBlur_101_37" result="shape"/>
</filter>
</defs>
</svg>
